<svg viewBox="0 0 371.63 126.4" xmlns="http://www.w3.org/2000/svg" id="Layer_2"><defs><style>.cls-1{fill:#bfd835;}.cls-2{font-family:Merriweather-Bold, Merriweather;font-size:55px;font-weight:700;}.cls-2,.cls-3{fill:#009a75;}</style></defs><g id="Layer_1-2"><text transform="translate(105.73 79.43)" class="cls-2"><tspan y="0" x="0">IsoFluent</tspan></text><path d="M0,19.73h45.97v87.5H0V19.73Z" class="cls-1"></path><path d="M55.52,9.69c2.68,0,4.84-2.17,4.84-4.84s-2.17-4.84-4.84-4.84h-19.45c-2.68,0-4.84,2.17-4.84,4.84s2.17,4.84,4.84,4.84h4.88v107.03h-4.88c-2.68,0-4.84,2.17-4.84,4.84s2.17,4.84,4.84,4.84h19.45c2.68,0,4.84-2.17,4.84-4.84s-2.17-4.84-4.84-4.84h-4.88V9.69h4.88Z" class="cls-3"></path><polygon points="59.79 19.92 59.89 27.92 83.5 27.63 84.37 99.13 60.76 99.42 60.86 107.41 92.47 107.03 91.4 19.54 59.79 19.92" class="cls-3"></polygon></g></svg>